<svg width="120" height="116" viewBox="0 0 120 116" fill="none" xmlns="http://www.w3.org/2000/svg">
<path d="M-8 5C-8 2.23858 -5.76142 0 -3 0H115C117.761 0 120 2.23858 120 5V111C120 113.761 117.761 116 115 116H-3C-5.76142 116 -8 113.761 -8 111V5Z" fill="#D9D9D9"/>
<path d="M113 57.5C113 86.4949 89.4949 110 60.5 110C31.5051 110 8 86.4949 8 57.5C8 28.5051 31.5051 5 60.5 5C89.4949 5 113 28.5051 113 57.5Z" fill="#9FB598"/>
<path d="M27 59.5L80.25 28.7561V90.2439L27 59.5Z" fill="#426151"/>
<path d="M37 59.5L90.25 28.7561V90.2439L37 59.5Z" fill="#9FB598"/>
</svg>
