<svg width="113" height="116" viewBox="0 0 113 116" fill="none" xmlns="http://www.w3.org/2000/svg">
<path d="M0 5C0 2.23858 2.23858 0 5 0H108C110.761 0 113 2.23858 113 5V111C113 113.761 110.761 116 108 116H5C2.23858 116 0 113.761 0 111V5Z" fill="#D9D9D9"/>
<path d="M109 58.5C109 87.4949 85.4949 111 56.5 111C27.5051 111 4 87.4949 4 58.5C4 29.5051 27.5051 6 56.5 6C85.4949 6 109 29.5051 109 58.5Z" fill="#9FB598"/>
<path d="M92 60.5L38.75 91.2439V29.7561L92 60.5Z" fill="#426151"/>
<path d="M83 60.5L29.75 91.2439V29.7561L83 60.5Z" fill="#9FB598"/>
</svg>
