<svg width="54" height="54" viewBox="0 0 54 54" fill="none" xmlns="http://www.w3.org/2000/svg">
<path d="M0 51.5455C0 52.8709 1.10455 54 2.45455 54H34.3636C35.7382 54 36.8182 52.8709 36.8182 51.5455V49.0909H0V51.5455ZM18.4091 19.6364C9.20455 19.6364 0 24.5455 0 34.3636H36.8182C36.8182 24.5455 27.6136 19.6364 18.4091 19.6364ZM6.43091 29.4545C9.15545 25.65 14.9482 24.5455 18.4091 24.5455C21.87 24.5455 27.6627 25.65 30.3873 29.4545H6.43091ZM0 39.2727H36.8182V44.1818H0V39.2727ZM41.7273 9.81818V0H36.8182V9.81818H24.5455L25.11 14.7273H48.5755L45.1391 49.0909H41.7273V54H45.9491C48.0109 54 49.7045 52.4045 49.95 50.3918L54 9.81818H41.7273Z" fill="#B6CEAE"/>
</svg>
