<svg width="54" height="54" viewBox="0 0 54 54" fill="none" xmlns="http://www.w3.org/2000/svg">
<path d="M17.4706 54C14.3831 54 11.7582 52.9189 9.59612 50.7568C7.434 48.5947 6.35294 45.9699 6.35294 42.8824V15.8156C4.5 15.1274 2.97847 14.0781 1.78835 12.6678C0.598236 11.2574 0.00211765 9.68824 0 7.96024C0 5.74941 0.771883 3.87 2.31565 2.322C3.85729 0.774 5.73035 0 7.93482 0C10.1393 0 12.0145 0.774 13.5604 2.322C15.1062 3.87 15.8802 5.75047 15.8824 7.96341C15.8824 9.68718 15.2873 11.2542 14.0972 12.6646C12.9071 14.0749 11.3845 15.1264 9.52941 15.8188V42.8824C9.52941 45.0656 10.3087 46.9355 11.8673 48.492C13.4238 50.0464 15.2958 50.8235 17.4833 50.8235C19.6708 50.8235 21.5386 50.0464 23.0866 48.492C24.6346 46.9376 25.4096 45.0678 25.4118 42.8824V11.1176C25.4118 8.03012 26.4928 5.40529 28.6549 3.24318C30.8171 1.08106 33.4419 0 36.5294 0C39.6169 0 42.2418 1.08106 44.4039 3.24318C46.566 5.40529 47.6471 8.03012 47.6471 11.1176V38.1844C49.5 38.8726 51.0226 39.9219 52.2148 41.3322C53.4071 42.7426 54.0021 44.3107 54 46.0366C54 48.2495 53.2292 50.13 51.6875 51.678C50.1438 53.226 48.2696 54 46.0652 54C43.8607 54 41.9855 53.226 40.4396 51.678C38.8938 50.13 38.1198 48.2506 38.1176 46.0398C38.1176 44.3139 38.7138 42.732 39.906 41.2941C41.0982 39.8562 42.6198 38.8196 44.4706 38.1844V11.1176C44.4706 8.93435 43.6923 7.06447 42.1359 5.508C40.5773 3.95365 38.7042 3.17647 36.5167 3.17647C34.3292 3.17647 32.4614 3.95471 30.9134 5.51118C29.3654 7.06765 28.5904 8.93647 28.5882 11.1176V42.8824C28.5882 45.9699 27.5072 48.5947 25.3451 50.7568C23.1829 52.9189 20.5581 54 17.4706 54ZM7.94118 12.7059C9.24776 12.7059 10.3691 12.2389 11.3051 11.3051C12.2389 10.3691 12.7059 9.24776 12.7059 7.94118C12.7059 6.63459 12.2389 5.51329 11.3051 4.57729C10.3691 3.64341 9.24776 3.17647 7.94118 3.17647C6.63459 3.17647 5.51329 3.64341 4.57729 4.57729C3.64341 5.51329 3.17647 6.63459 3.17647 7.94118C3.17647 9.24776 3.64341 10.3691 4.57729 11.3051C5.51329 12.2389 6.63459 12.7059 7.94118 12.7059ZM46.0588 50.8235C47.3654 50.8235 48.4867 50.3566 49.4227 49.4227C50.3566 48.4867 50.8235 47.3654 50.8235 46.0588C50.8235 44.7522 50.3566 43.6309 49.4227 42.6949C48.4867 41.7611 47.3654 41.2941 46.0588 41.2941C44.7522 41.2941 43.6309 41.7611 42.6949 42.6949C41.7611 43.6309 41.2941 44.7522 41.2941 46.0588C41.2941 47.3654 41.7611 48.4867 42.6949 49.4227C43.6309 50.3566 44.7522 50.8235 46.0588 50.8235Z" fill="#B6CEAE"/>
</svg>
